<svg xmlns="http://www.w3.org/2000/svg" xmlns:xlink="http://www.w3.org/1999/xlink" contentStyleType="text/css" data-diagram-type="CLASS" height="957px" preserveAspectRatio="none" style="width:2167px;height:957px;background:#FFFFFF;" version="1.1" viewBox="0 0 2167 957" width="2167px" zoomAndPan="magnify"><defs/><g><!--class VendingMachine--><g id="elem_VendingMachine"><rect codeLine="2" fill="#F1F1F1" height="227.2656" id="VendingMachine" rx="2.5" ry="2.5" style="stroke:#181818;stroke-width:0.5;" width="290.7012" x="464" y="7"/><ellipse cx="546.9985" cy="23" fill="#ADD1B2" rx="11" ry="11" style="stroke:#181818;stroke-width:1;"/><path d="M549.9673,28.6406 Q549.3892,28.9375 548.7485,29.0781 Q548.1079,29.2344 547.4048,29.2344 Q544.9048,29.2344 543.5767,27.5938 Q542.2642,25.9375 542.2642,22.8125 Q542.2642,19.6875 543.5767,18.0313 Q544.9048,16.375 547.4048,16.375 Q548.1079,16.375 548.7485,16.5313 Q549.4048,16.6875 549.9673,16.9844 L549.9673,19.7031 Q549.3423,19.125 548.7485,18.8594 Q548.1548,18.5781 547.5298,18.5781 Q546.186,18.5781 545.4985,19.6563 Q544.811,20.7188 544.811,22.8125 Q544.811,24.9063 545.4985,25.9844 Q546.186,27.0469 547.5298,27.0469 Q548.1548,27.0469 548.7485,26.7813 Q549.3423,26.5 549.9673,25.9219 L549.9673,28.6406 Z " fill="#000000"/><text fill="#000000" font-family="sans-serif" font-size="14" lengthAdjust="spacing" textLength="116.2041" x="567.4985" y="27.8467">VendingMachine</text><line style="stroke:#181818;stroke-width:0.5;" x1="465" x2="753.7012" y1="39" y2="39"/><rect fill="transparent" height="6" style="stroke:#C82930;stroke-width:1;" width="6" x="472" y="49.6484"/><text fill="#000000" font-family="sans-serif" font-size="14" lengthAdjust="spacing" textLength="137.9492" x="484" y="55.9951">Inventory inventory</text><rect fill="transparent" height="6" style="stroke:#C82930;stroke-width:1;" width="6" x="472" y="65.9453"/><text fill="#000000" font-family="sans-serif" font-size="14" lengthAdjust="spacing" textLength="264.7012" x="484" y="72.292">PaymentProcessor paymentProcessor</text><rect fill="transparent" height="6" style="stroke:#C82930;stroke-width:1;" width="6" x="472" y="82.2422"/><text fill="#000000" font-family="sans-serif" font-size="14" lengthAdjust="spacing" textLength="129.623" x="484" y="88.5889">State currentState</text><rect fill="transparent" height="6" style="stroke:#C82930;stroke-width:1;" width="6" x="472" y="98.5391"/><text fill="#000000" font-family="sans-serif" font-size="14" lengthAdjust="spacing" textLength="261.5771" x="484" y="104.8857">Map&lt;String, Double&gt; insertedMoney</text><line style="stroke:#181818;stroke-width:0.5;" x1="465" x2="753.7012" y1="112.1875" y2="112.1875"/><ellipse cx="475" cy="125.8359" fill="#84BE84" rx="3" ry="3" style="stroke:#038048;stroke-width:1;"/><text fill="#000000" font-family="sans-serif" font-size="14" lengthAdjust="spacing" textLength="69.2754" x="484" y="129.1826">initialize()</text><ellipse cx="475" cy="142.1328" fill="#84BE84" rx="3" ry="3" style="stroke:#038048;stroke-width:1;"/><text fill="#000000" font-family="sans-serif" font-size="14" lengthAdjust="spacing" textLength="196.0957" x="484" y="145.4795">insertMoney(Money money)</text><ellipse cx="475" cy="158.4297" fill="#84BE84" rx="3" ry="3" style="stroke:#038048;stroke-width:1;"/><text fill="#000000" font-family="sans-serif" font-size="14" lengthAdjust="spacing" textLength="198.0918" x="484" y="161.7764">selectItem(String itemCode)</text><ellipse cx="475" cy="174.7266" fill="#84BE84" rx="3" ry="3" style="stroke:#038048;stroke-width:1;"/><text fill="#000000" font-family="sans-serif" font-size="14" lengthAdjust="spacing" textLength="138.4209" x="484" y="178.0732">cancelTransaction()</text><ellipse cx="475" cy="191.0234" fill="#84BE84" rx="3" ry="3" style="stroke:#038048;stroke-width:1;"/><text fill="#000000" font-family="sans-serif" font-size="14" lengthAdjust="spacing" textLength="218.8457" x="484" y="194.3701">dispenseItem(String itemCode)</text><ellipse cx="475" cy="207.3203" fill="#84BE84" rx="3" ry="3" style="stroke:#038048;stroke-width:1;"/><text fill="#000000" font-family="sans-serif" font-size="14" lengthAdjust="spacing" textLength="107.8848" x="484" y="210.667">returnChange()</text><ellipse cx="475" cy="223.6172" fill="#84BE84" rx="3" ry="3" style="stroke:#038048;stroke-width:1;"/><text fill="#000000" font-family="sans-serif" font-size="14" lengthAdjust="spacing" textLength="146.3506" x="484" y="226.9639">setState(State state)</text></g><!--class Inventory--><g id="elem_Inventory"><rect codeLine="16" fill="#F1F1F1" height="129.4844" id="Inventory" rx="2.5" ry="2.5" style="stroke:#181818;stroke-width:0.5;" width="369.2734" x="7" y="335.5"/><ellipse cx="153.9521" cy="351.5" fill="#ADD1B2" rx="11" ry="11" style="stroke:#181818;stroke-width:1;"/><path d="M156.9209,357.1406 Q156.3428,357.4375 155.7021,357.5781 Q155.0615,357.7344 154.3584,357.7344 Q151.8584,357.7344 150.5303,356.0938 Q149.2178,354.4375 149.2178,351.3125 Q149.2178,348.1875 150.5303,346.5313 Q151.8584,344.875 154.3584,344.875 Q155.0615,344.875 155.7021,345.0313 Q156.3584,345.1875 156.9209,345.4844 L156.9209,348.2031 Q156.2959,347.625 155.7021,347.3594 Q155.1084,347.0781 154.4834,347.0781 Q153.1396,347.0781 152.4521,348.1563 Q151.7646,349.2188 151.7646,351.3125 Q151.7646,353.4063 152.4521,354.4844 Q153.1396,355.5469 154.4834,355.5469 Q155.1084,355.5469 155.7021,355.2813 Q156.2959,355 156.9209,354.4219 L156.9209,357.1406 Z " fill="#000000"/><text fill="#000000" font-family="sans-serif" font-size="14" lengthAdjust="spacing" textLength="66.8691" x="174.4521" y="356.3467">Inventory</text><line style="stroke:#181818;stroke-width:0.5;" x1="8" x2="375.2734" y1="367.5" y2="367.5"/><rect fill="transparent" height="6" style="stroke:#C82930;stroke-width:1;" width="6" x="15" y="378.1484"/><text fill="#000000" font-family="sans-serif" font-size="14" lengthAdjust="spacing" textLength="232.5928" x="27" y="384.4951">Map&lt;String, ItemSlot&gt; itemSlots</text><line style="stroke:#181818;stroke-width:0.5;" x1="8" x2="375.2734" y1="391.7969" y2="391.7969"/><ellipse cx="18" cy="405.4453" fill="#84BE84" rx="3" ry="3" style="stroke:#038048;stroke-width:1;"/><text fill="#000000" font-family="sans-serif" font-size="14" lengthAdjust="spacing" textLength="343.2734" x="27" y="408.792">addItem(Item item, String slotCode, int quantity)</text><ellipse cx="18" cy="421.7422" fill="#84BE84" rx="3" ry="3" style="stroke:#038048;stroke-width:1;"/><text fill="#000000" font-family="sans-serif" font-size="14" lengthAdjust="spacing" textLength="173.0928" x="27" y="425.0889">getItem(String slotCode)</text><ellipse cx="18" cy="438.0391" fill="#84BE84" rx="3" ry="3" style="stroke:#038048;stroke-width:1;"/><text fill="#000000" font-family="sans-serif" font-size="14" lengthAdjust="spacing" textLength="318.0283" x="27" y="441.3857">updateQuantity(String slotCode, int quantity)</text><ellipse cx="18" cy="454.3359" fill="#84BE84" rx="3" ry="3" style="stroke:#038048;stroke-width:1;"/><text fill="#000000" font-family="sans-serif" font-size="14" lengthAdjust="spacing" textLength="225.4766" x="27" y="457.6826">isItemAvailable(String slotCode)</text></g><!--class ItemSlot--><g id="elem_ItemSlot"><rect codeLine="24" fill="#F1F1F1" height="162.0781" id="ItemSlot" rx="2.5" ry="2.5" style="stroke:#181818;stroke-width:0.5;" width="245.584" x="33.5" y="566"/><ellipse cx="122.6919" cy="582" fill="#ADD1B2" rx="11" ry="11" style="stroke:#181818;stroke-width:1;"/><path d="M125.6606,587.6406 Q125.0825,587.9375 124.4419,588.0781 Q123.8013,588.2344 123.0981,588.2344 Q120.5981,588.2344 119.27,586.5938 Q117.9575,584.9375 117.9575,581.8125 Q117.9575,578.6875 119.27,577.0313 Q120.5981,575.375 123.0981,575.375 Q123.8013,575.375 124.4419,575.5313 Q125.0981,575.6875 125.6606,575.9844 L125.6606,578.7031 Q125.0356,578.125 124.4419,577.8594 Q123.8481,577.5781 123.2231,577.5781 Q121.8794,577.5781 121.1919,578.6563 Q120.5044,579.7188 120.5044,581.8125 Q120.5044,583.9063 121.1919,584.9844 Q121.8794,586.0469 123.2231,586.0469 Q123.8481,586.0469 124.4419,585.7813 Q125.0356,585.5 125.6606,584.9219 L125.6606,587.6406 Z " fill="#000000"/><text fill="#000000" font-family="sans-serif" font-size="14" lengthAdjust="spacing" textLength="58.7002" x="143.1919" y="586.8467">ItemSlot</text><line style="stroke:#181818;stroke-width:0.5;" x1="34.5" x2="278.084" y1="598" y2="598"/><rect fill="transparent" height="6" style="stroke:#C82930;stroke-width:1;" width="6" x="41.5" y="608.6484"/><text fill="#000000" font-family="sans-serif" font-size="14" lengthAdjust="spacing" textLength="67.9492" x="53.5" y="614.9951">Item item</text><rect fill="transparent" height="6" style="stroke:#C82930;stroke-width:1;" width="6" x="41.5" y="624.9453"/><text fill="#000000" font-family="sans-serif" font-size="14" lengthAdjust="spacing" textLength="81.0674" x="53.5" y="631.292">int quantity</text><rect fill="transparent" height="6" style="stroke:#C82930;stroke-width:1;" width="6" x="41.5" y="641.2422"/><text fill="#000000" font-family="sans-serif" font-size="14" lengthAdjust="spacing" textLength="107.3105" x="53.5" y="647.5889">String slotCode</text><line style="stroke:#181818;stroke-width:0.5;" x1="34.5" x2="278.084" y1="654.8906" y2="654.8906"/><ellipse cx="44.5" cy="668.5391" fill="#84BE84" rx="3" ry="3" style="stroke:#038048;stroke-width:1;"/><text fill="#000000" font-family="sans-serif" font-size="14" lengthAdjust="spacing" textLength="65.7822" x="53.5" y="671.8857">getItem()</text><ellipse cx="44.5" cy="684.8359" fill="#84BE84" rx="3" ry="3" style="stroke:#038048;stroke-width:1;"/><text fill="#000000" font-family="sans-serif" font-size="14" lengthAdjust="spacing" textLength="94.4111" x="53.5" y="688.1826">getQuantity()</text><ellipse cx="44.5" cy="701.1328" fill="#84BE84" rx="3" ry="3" style="stroke:#038048;stroke-width:1;"/><text fill="#000000" font-family="sans-serif" font-size="14" lengthAdjust="spacing" textLength="147.6016" x="53.5" y="704.4795">decrementQuantity()</text><ellipse cx="44.5" cy="717.4297" fill="#84BE84" rx="3" ry="3" style="stroke:#038048;stroke-width:1;"/><text fill="#000000" font-family="sans-serif" font-size="14" lengthAdjust="spacing" textLength="219.584" x="53.5" y="720.7764">incrementQuantity(int amount)</text></g><!--class Item--><g id="elem_Item"><rect codeLine="34" fill="#F1F1F1" height="145.7813" id="Item" rx="2.5" ry="2.5" style="stroke:#181818;stroke-width:0.5;" width="113.0078" x="100" y="805"/><ellipse cx="137.1124" cy="821" fill="#ADD1B2" rx="11" ry="11" style="stroke:#181818;stroke-width:1;"/><path d="M140.0812,826.6406 Q139.503,826.9375 138.8624,827.0781 Q138.2218,827.2344 137.5187,827.2344 Q135.0187,827.2344 133.6905,825.5938 Q132.378,823.9375 132.378,820.8125 Q132.378,817.6875 133.6905,816.0313 Q135.0187,814.375 137.5187,814.375 Q138.2218,814.375 138.8624,814.5313 Q139.5187,814.6875 140.0812,814.9844 L140.0812,817.7031 Q139.4562,817.125 138.8624,816.8594 Q138.2687,816.5781 137.6437,816.5781 Q136.2999,816.5781 135.6124,817.6563 Q134.9249,818.7188 134.9249,820.8125 Q134.9249,822.9063 135.6124,823.9844 Q136.2999,825.0469 137.6437,825.0469 Q138.2687,825.0469 138.8624,824.7813 Q139.4562,824.5 140.0812,823.9219 L140.0812,826.6406 Z " fill="#000000"/><text fill="#000000" font-family="sans-serif" font-size="14" lengthAdjust="spacing" textLength="31.8691" x="156.0263" y="825.8467">Item</text><line style="stroke:#181818;stroke-width:0.5;" x1="101" x2="212.0078" y1="837" y2="837"/><rect fill="transparent" height="6" style="stroke:#C82930;stroke-width:1;" width="6" x="108" y="847.6484"/><text fill="#000000" font-family="sans-serif" font-size="14" lengthAdjust="spacing" textLength="85.9346" x="120" y="853.9951">String name</text><rect fill="transparent" height="6" style="stroke:#C82930;stroke-width:1;" width="6" x="108" y="863.9453"/><text fill="#000000" font-family="sans-serif" font-size="14" lengthAdjust="spacing" textLength="87.0078" x="120" y="870.292">double price</text><rect fill="transparent" height="6" style="stroke:#C82930;stroke-width:1;" width="6" x="108" y="880.2422"/><text fill="#000000" font-family="sans-serif" font-size="14" lengthAdjust="spacing" textLength="79.9941" x="120" y="886.5889">String code</text><line style="stroke:#181818;stroke-width:0.5;" x1="101" x2="212.0078" y1="893.8906" y2="893.8906"/><ellipse cx="111" cy="907.5391" fill="#84BE84" rx="3" ry="3" style="stroke:#038048;stroke-width:1;"/><text fill="#000000" font-family="sans-serif" font-size="14" lengthAdjust="spacing" textLength="75.2158" x="120" y="910.8857">getName()</text><ellipse cx="111" cy="923.8359" fill="#84BE84" rx="3" ry="3" style="stroke:#038048;stroke-width:1;"/><text fill="#000000" font-family="sans-serif" font-size="14" lengthAdjust="spacing" textLength="68.3115" x="120" y="927.1826">getPrice()</text><ellipse cx="111" cy="940.1328" fill="#84BE84" rx="3" ry="3" style="stroke:#038048;stroke-width:1;"/><text fill="#000000" font-family="sans-serif" font-size="14" lengthAdjust="spacing" textLength="69.7539" x="120" y="943.4795">getCode()</text></g><!--class PaymentProcessor--><g id="elem_PaymentProcessor"><rect codeLine="43" fill="#F1F1F1" height="178.375" id="PaymentProcessor" rx="2.5" ry="2.5" style="stroke:#181818;stroke-width:0.5;" width="364.9736" x="427" y="311"/><ellipse cx="540.2852" cy="327" fill="#ADD1B2" rx="11" ry="11" style="stroke:#181818;stroke-width:1;"/><path d="M543.2539,332.6406 Q542.6758,332.9375 542.0352,333.0781 Q541.3945,333.2344 540.6914,333.2344 Q538.1914,333.2344 536.8633,331.5938 Q535.5508,329.9375 535.5508,326.8125 Q535.5508,323.6875 536.8633,322.0313 Q538.1914,320.375 540.6914,320.375 Q541.3945,320.375 542.0352,320.5313 Q542.6914,320.6875 543.2539,320.9844 L543.2539,323.7031 Q542.6289,323.125 542.0352,322.8594 Q541.4414,322.5781 540.8164,322.5781 Q539.4727,322.5781 538.7852,323.6563 Q538.0977,324.7188 538.0977,326.8125 Q538.0977,328.9063 538.7852,329.9844 Q539.4727,331.0469 540.8164,331.0469 Q541.4414,331.0469 542.0352,330.7813 Q542.6289,330.5 543.2539,329.9219 L543.2539,332.6406 Z " fill="#000000"/><text fill="#000000" font-family="sans-serif" font-size="14" lengthAdjust="spacing" textLength="129.9033" x="560.7852" y="331.8467">PaymentProcessor</text><line style="stroke:#181818;stroke-width:0.5;" x1="428" x2="790.9736" y1="343" y2="343"/><rect fill="transparent" height="6" style="stroke:#C82930;stroke-width:1;" width="6" x="435" y="353.6484"/><text fill="#000000" font-family="sans-serif" font-size="14" lengthAdjust="spacing" textLength="141.832" x="447" y="359.9951">double totalInserted</text><rect fill="transparent" height="6" style="stroke:#C82930;stroke-width:1;" width="6" x="435" y="369.9453"/><text fill="#000000" font-family="sans-serif" font-size="14" lengthAdjust="spacing" textLength="248.7051" x="447" y="376.292">PaymentStrategy paymentStrategy</text><line style="stroke:#181818;stroke-width:0.5;" x1="428" x2="790.9736" y1="383.5938" y2="383.5938"/><ellipse cx="438" cy="397.2422" fill="#84BE84" rx="3" ry="3" style="stroke:#038048;stroke-width:1;"/><text fill="#000000" font-family="sans-serif" font-size="14" lengthAdjust="spacing" textLength="196.0957" x="447" y="400.5889">insertMoney(Money money)</text><ellipse cx="438" cy="413.5391" fill="#84BE84" rx="3" ry="3" style="stroke:#038048;stroke-width:1;"/><text fill="#000000" font-family="sans-serif" font-size="14" lengthAdjust="spacing" textLength="126.6426" x="447" y="416.8857">getTotalInserted()</text><ellipse cx="438" cy="429.8359" fill="#84BE84" rx="3" ry="3" style="stroke:#038048;stroke-width:1;"/><text fill="#000000" font-family="sans-serif" font-size="14" lengthAdjust="spacing" textLength="214.8398" x="447" y="433.1826">calculateChange(double price)</text><ellipse cx="438" cy="446.1328" fill="#84BE84" rx="3" ry="3" style="stroke:#038048;stroke-width:1;"/><text fill="#000000" font-family="sans-serif" font-size="14" lengthAdjust="spacing" textLength="46.6895" x="447" y="449.4795">reset()</text><ellipse cx="438" cy="462.4297" fill="#84BE84" rx="3" ry="3" style="stroke:#038048;stroke-width:1;"/><text fill="#000000" font-family="sans-serif" font-size="14" lengthAdjust="spacing" textLength="338.9736" x="447" y="465.7764">setPaymentStrategy(PaymentStrategy strategy)</text><ellipse cx="438" cy="478.7266" fill="#84BE84" rx="3" ry="3" style="stroke:#038048;stroke-width:1;"/><text fill="#000000" font-family="sans-serif" font-size="14" lengthAdjust="spacing" textLength="233.1328" x="447" y="482.0732">processPayment(double amount)</text></g><!--class Money--><g id="elem_Money"><rect codeLine="54" fill="#F1F1F1" height="113.1875" id="Money" rx="2.5" ry="2.5" style="stroke:#181818;stroke-width:0.5;" width="142.4775" x="314.5" y="590.5"/><ellipse cx="358.3277" cy="606.5" fill="#ADD1B2" rx="11" ry="11" style="stroke:#181818;stroke-width:1;"/><path d="M361.2964,612.1406 Q360.7183,612.4375 360.0777,612.5781 Q359.4371,612.7344 358.7339,612.7344 Q356.2339,612.7344 354.9058,611.0938 Q353.5933,609.4375 353.5933,606.3125 Q353.5933,603.1875 354.9058,601.5313 Q356.2339,599.875 358.7339,599.875 Q359.4371,599.875 360.0777,600.0313 Q360.7339,600.1875 361.2964,600.4844 L361.2964,603.2031 Q360.6714,602.625 360.0777,602.3594 Q359.4839,602.0781 358.8589,602.0781 Q357.5152,602.0781 356.8277,603.1563 Q356.1402,604.2188 356.1402,606.3125 Q356.1402,608.4063 356.8277,609.4844 Q357.5152,610.5469 358.8589,610.5469 Q359.4839,610.5469 360.0777,610.2813 Q360.6714,610 361.2964,609.4219 L361.2964,612.1406 Z " fill="#000000"/><text fill="#000000" font-family="sans-serif" font-size="14" lengthAdjust="spacing" textLength="46.416" x="378.7338" y="611.3467">Money</text><line style="stroke:#181818;stroke-width:0.5;" x1="315.5" x2="455.9775" y1="622.5" y2="622.5"/><rect fill="transparent" height="6" style="stroke:#C82930;stroke-width:1;" width="6" x="322.5" y="633.1484"/><text fill="#000000" font-family="sans-serif" font-size="14" lengthAdjust="spacing" textLength="90.4053" x="334.5" y="639.4951">double value</text><rect fill="transparent" height="6" style="stroke:#C82930;stroke-width:1;" width="6" x="322.5" y="649.4453"/><text fill="#000000" font-family="sans-serif" font-size="14" lengthAdjust="spacing" textLength="116.4775" x="334.5" y="655.792">MoneyType type</text><line style="stroke:#181818;stroke-width:0.5;" x1="315.5" x2="455.9775" y1="663.0938" y2="663.0938"/><ellipse cx="325.5" cy="676.7422" fill="#84BE84" rx="3" ry="3" style="stroke:#038048;stroke-width:1;"/><text fill="#000000" font-family="sans-serif" font-size="14" lengthAdjust="spacing" textLength="73.4453" x="334.5" y="680.0889">getValue()</text><ellipse cx="325.5" cy="693.0391" fill="#84BE84" rx="3" ry="3" style="stroke:#038048;stroke-width:1;"/><text fill="#000000" font-family="sans-serif" font-size="14" lengthAdjust="spacing" textLength="68.25" x="334.5" y="696.3857">getType()</text></g><!--class MoneyType--><g id="elem_MoneyType"><rect codeLine="61" fill="#F1F1F1" height="88.8594" id="MoneyType" rx="2.5" ry="2.5" style="stroke:#181818;stroke-width:0.5;" width="119.752" x="325.5" y="833.5"/><ellipse cx="340.5" cy="853.6328" fill="#ADD1B2" rx="11" ry="11" style="stroke:#181818;stroke-width:1;"/><path d="M343.4688,859.2734 Q342.8906,859.5703 342.25,859.7109 Q341.6094,859.8672 340.9063,859.8672 Q338.4063,859.8672 337.0781,858.2266 Q335.7656,856.5703 335.7656,853.4453 Q335.7656,850.3203 337.0781,848.6641 Q338.4063,847.0078 340.9063,847.0078 Q341.6094,847.0078 342.25,847.1641 Q342.9063,847.3203 343.4688,847.6172 L343.4688,850.3359 Q342.8438,849.7578 342.25,849.4922 Q341.6563,849.2109 341.0313,849.2109 Q339.6875,849.2109 339,850.2891 Q338.3125,851.3516 338.3125,853.4453 Q338.3125,855.5391 339,856.6172 Q339.6875,857.6797 341.0313,857.6797 Q341.6563,857.6797 342.25,857.4141 Q342.8438,857.1328 343.4688,856.5547 L343.4688,859.2734 Z " fill="#000000"/><text fill="#000000" font-family="sans-serif" font-size="12" font-style="italic" lengthAdjust="spacing" textLength="91.752" x="352.5" y="849.6387">&#171;enumeration&#187;</text><text fill="#000000" font-family="sans-serif" font-size="14" lengthAdjust="spacing" textLength="80.7529" x="357.9995" y="865.4639">MoneyType</text><line style="stroke:#181818;stroke-width:0.5;" x1="326.5" x2="444.252" y1="873.7656" y2="873.7656"/><text fill="#000000" font-family="sans-serif" font-size="14" lengthAdjust="spacing" textLength="35.3965" x="331.5" y="890.7607">COIN</text><text fill="#000000" font-family="sans-serif" font-size="14" lengthAdjust="spacing" textLength="29.333" x="331.5" y="907.0576">BILL</text><line style="stroke:#181818;stroke-width:0.5;" x1="326.5" x2="444.252" y1="914.3594" y2="914.3594"/></g><!--class State--><g id="elem_State"><rect codeLine="66" fill="#F1F1F1" height="113.1875" id="State" rx="2.5" ry="2.5" style="stroke:#181818;stroke-width:0.5;" width="434.5635" x="1053" y="343.5"/><ellipse cx="1247.5029" cy="359.5" fill="#B4A7E5" rx="11" ry="11" style="stroke:#181818;stroke-width:1;"/><path d="M1243.4248,355.2656 L1243.4248,353.1094 L1250.8154,353.1094 L1250.8154,355.2656 L1248.3467,355.2656 L1248.3467,363.3438 L1250.8154,363.3438 L1250.8154,365.5 L1243.4248,365.5 L1243.4248,363.3438 L1245.8936,363.3438 L1245.8936,355.2656 L1243.4248,355.2656 Z " fill="#000000"/><text fill="#000000" font-family="sans-serif" font-size="14" font-style="italic" lengthAdjust="spacing" textLength="37.0576" x="1268.0029" y="364.3467">State</text><line style="stroke:#181818;stroke-width:0.5;" x1="1054" x2="1486.5635" y1="375.5" y2="375.5"/><line style="stroke:#181818;stroke-width:0.5;" x1="1054" x2="1486.5635" y1="383.5" y2="383.5"/><ellipse cx="1064" cy="397.1484" fill="#84BE84" rx="3" ry="3" style="stroke:#038048;stroke-width:1;"/><text fill="#000000" font-family="sans-serif" font-size="14" lengthAdjust="spacing" textLength="385.8135" x="1073" y="400.4951">insertMoney(VendingMachine machine, Money money)</text><ellipse cx="1064" cy="413.4453" fill="#84BE84" rx="3" ry="3" style="stroke:#038048;stroke-width:1;"/><text fill="#000000" font-family="sans-serif" font-size="14" lengthAdjust="spacing" textLength="387.8096" x="1073" y="416.792">selectItem(VendingMachine machine, String itemCode)</text><ellipse cx="1064" cy="429.7422" fill="#84BE84" rx="3" ry="3" style="stroke:#038048;stroke-width:1;"/><text fill="#000000" font-family="sans-serif" font-size="14" lengthAdjust="spacing" textLength="408.5635" x="1073" y="433.0889">dispenseItem(VendingMachine machine, String itemCode)</text><ellipse cx="1064" cy="446.0391" fill="#84BE84" rx="3" ry="3" style="stroke:#038048;stroke-width:1;"/><text fill="#000000" font-family="sans-serif" font-size="14" lengthAdjust="spacing" textLength="319.2383" x="1073" y="449.3857">cancelTransaction(VendingMachine machine)</text></g><!--class IdleState--><g id="elem_IdleState"><rect codeLine="73" fill="#F1F1F1" height="113.1875" id="IdleState" rx="2.5" ry="2.5" style="stroke:#181818;stroke-width:0.5;" width="434.5635" x="786" y="590.5"/><ellipse cx="967.7437" cy="606.5" fill="#ADD1B2" rx="11" ry="11" style="stroke:#181818;stroke-width:1;"/><path d="M970.7124,612.1406 Q970.1343,612.4375 969.4937,612.5781 Q968.853,612.7344 968.1499,612.7344 Q965.6499,612.7344 964.3218,611.0938 Q963.0093,609.4375 963.0093,606.3125 Q963.0093,603.1875 964.3218,601.5313 Q965.6499,599.875 968.1499,599.875 Q968.853,599.875 969.4937,600.0313 Q970.1499,600.1875 970.7124,600.4844 L970.7124,603.2031 Q970.0874,602.625 969.4937,602.3594 Q968.8999,602.0781 968.2749,602.0781 Q966.9312,602.0781 966.2437,603.1563 Q965.5562,604.2188 965.5562,606.3125 Q965.5562,608.4063 966.2437,609.4844 Q966.9312,610.5469 968.2749,610.5469 Q968.8999,610.5469 969.4937,610.2813 Q970.0874,610 970.7124,609.4219 L970.7124,612.1406 Z " fill="#000000"/><text fill="#000000" font-family="sans-serif" font-size="14" lengthAdjust="spacing" textLength="62.5762" x="988.2437" y="611.3467">IdleState</text><line style="stroke:#181818;stroke-width:0.5;" x1="787" x2="1219.5635" y1="622.5" y2="622.5"/><line style="stroke:#181818;stroke-width:0.5;" x1="787" x2="1219.5635" y1="630.5" y2="630.5"/><ellipse cx="797" cy="644.1484" fill="#84BE84" rx="3" ry="3" style="stroke:#038048;stroke-width:1;"/><text fill="#000000" font-family="sans-serif" font-size="14" lengthAdjust="spacing" textLength="385.8135" x="806" y="647.4951">insertMoney(VendingMachine machine, Money money)</text><ellipse cx="797" cy="660.4453" fill="#84BE84" rx="3" ry="3" style="stroke:#038048;stroke-width:1;"/><text fill="#000000" font-family="sans-serif" font-size="14" lengthAdjust="spacing" textLength="387.8096" x="806" y="663.792">selectItem(VendingMachine machine, String itemCode)</text><ellipse cx="797" cy="676.7422" fill="#84BE84" rx="3" ry="3" style="stroke:#038048;stroke-width:1;"/><text fill="#000000" font-family="sans-serif" font-size="14" lengthAdjust="spacing" textLength="408.5635" x="806" y="680.0889">dispenseItem(VendingMachine machine, String itemCode)</text><ellipse cx="797" cy="693.0391" fill="#84BE84" rx="3" ry="3" style="stroke:#038048;stroke-width:1;"/><text fill="#000000" font-family="sans-serif" font-size="14" lengthAdjust="spacing" textLength="319.2383" x="806" y="696.3857">cancelTransaction(VendingMachine machine)</text></g><!--class HasMoneyState--><g id="elem_HasMoneyState"><rect codeLine="80" fill="#F1F1F1" height="113.1875" id="HasMoneyState" rx="2.5" ry="2.5" style="stroke:#181818;stroke-width:0.5;" width="434.5635" x="1256" y="590.5"/><ellipse cx="1414.0947" cy="606.5" fill="#ADD1B2" rx="11" ry="11" style="stroke:#181818;stroke-width:1;"/><path d="M1417.0635,612.1406 Q1416.4854,612.4375 1415.8447,612.5781 Q1415.2041,612.7344 1414.501,612.7344 Q1412.001,612.7344 1410.6729,611.0938 Q1409.3604,609.4375 1409.3604,606.3125 Q1409.3604,603.1875 1410.6729,601.5313 Q1412.001,599.875 1414.501,599.875 Q1415.2041,599.875 1415.8447,600.0313 Q1416.501,600.1875 1417.0635,600.4844 L1417.0635,603.2031 Q1416.4385,602.625 1415.8447,602.3594 Q1415.251,602.0781 1414.626,602.0781 Q1413.2822,602.0781 1412.5947,603.1563 Q1411.9072,604.2188 1411.9072,606.3125 Q1411.9072,608.4063 1412.5947,609.4844 Q1413.2822,610.5469 1414.626,610.5469 Q1415.251,610.5469 1415.8447,610.2813 Q1416.4385,610 1417.0635,609.4219 L1417.0635,612.1406 Z " fill="#000000"/><text fill="#000000" font-family="sans-serif" font-size="14" lengthAdjust="spacing" textLength="109.874" x="1434.5947" y="611.3467">HasMoneyState</text><line style="stroke:#181818;stroke-width:0.5;" x1="1257" x2="1689.5635" y1="622.5" y2="622.5"/><line style="stroke:#181818;stroke-width:0.5;" x1="1257" x2="1689.5635" y1="630.5" y2="630.5"/><ellipse cx="1267" cy="644.1484" fill="#84BE84" rx="3" ry="3" style="stroke:#038048;stroke-width:1;"/><text fill="#000000" font-family="sans-serif" font-size="14" lengthAdjust="spacing" textLength="385.8135" x="1276" y="647.4951">insertMoney(VendingMachine machine, Money money)</text><ellipse cx="1267" cy="660.4453" fill="#84BE84" rx="3" ry="3" style="stroke:#038048;stroke-width:1;"/><text fill="#000000" font-family="sans-serif" font-size="14" lengthAdjust="spacing" textLength="387.8096" x="1276" y="663.792">selectItem(VendingMachine machine, String itemCode)</text><ellipse cx="1267" cy="676.7422" fill="#84BE84" rx="3" ry="3" style="stroke:#038048;stroke-width:1;"/><text fill="#000000" font-family="sans-serif" font-size="14" lengthAdjust="spacing" textLength="408.5635" x="1276" y="680.0889">dispenseItem(VendingMachine machine, String itemCode)</text><ellipse cx="1267" cy="693.0391" fill="#84BE84" rx="3" ry="3" style="stroke:#038048;stroke-width:1;"/><text fill="#000000" font-family="sans-serif" font-size="14" lengthAdjust="spacing" textLength="319.2383" x="1276" y="696.3857">cancelTransaction(VendingMachine machine)</text></g><!--class DispensingState--><g id="elem_DispensingState"><rect codeLine="87" fill="#F1F1F1" height="113.1875" id="DispensingState" rx="2.5" ry="2.5" style="stroke:#181818;stroke-width:0.5;" width="434.5635" x="1726" y="590.5"/><ellipse cx="1881.8628" cy="606.5" fill="#ADD1B2" rx="11" ry="11" style="stroke:#181818;stroke-width:1;"/><path d="M1884.8315,612.1406 Q1884.2534,612.4375 1883.6128,612.5781 Q1882.9722,612.7344 1882.269,612.7344 Q1879.769,612.7344 1878.4409,611.0938 Q1877.1284,609.4375 1877.1284,606.3125 Q1877.1284,603.1875 1878.4409,601.5313 Q1879.769,599.875 1882.269,599.875 Q1882.9722,599.875 1883.6128,600.0313 Q1884.269,600.1875 1884.8315,600.4844 L1884.8315,603.2031 Q1884.2065,602.625 1883.6128,602.3594 Q1883.019,602.0781 1882.394,602.0781 Q1881.0503,602.0781 1880.3628,603.1563 Q1879.6753,604.2188 1879.6753,606.3125 Q1879.6753,608.4063 1880.3628,609.4844 Q1881.0503,610.5469 1882.394,610.5469 Q1883.019,610.5469 1883.6128,610.2813 Q1884.2065,610 1884.8315,609.4219 L1884.8315,612.1406 Z " fill="#000000"/><text fill="#000000" font-family="sans-serif" font-size="14" lengthAdjust="spacing" textLength="114.3379" x="1902.3628" y="611.3467">DispensingState</text><line style="stroke:#181818;stroke-width:0.5;" x1="1727" x2="2159.5635" y1="622.5" y2="622.5"/><line style="stroke:#181818;stroke-width:0.5;" x1="1727" x2="2159.5635" y1="630.5" y2="630.5"/><ellipse cx="1737" cy="644.1484" fill="#84BE84" rx="3" ry="3" style="stroke:#038048;stroke-width:1;"/><text fill="#000000" font-family="sans-serif" font-size="14" lengthAdjust="spacing" textLength="385.8135" x="1746" y="647.4951">insertMoney(VendingMachine machine, Money money)</text><ellipse cx="1737" cy="660.4453" fill="#84BE84" rx="3" ry="3" style="stroke:#038048;stroke-width:1;"/><text fill="#000000" font-family="sans-serif" font-size="14" lengthAdjust="spacing" textLength="387.8096" x="1746" y="663.792">selectItem(VendingMachine machine, String itemCode)</text><ellipse cx="1737" cy="676.7422" fill="#84BE84" rx="3" ry="3" style="stroke:#038048;stroke-width:1;"/><text fill="#000000" font-family="sans-serif" font-size="14" lengthAdjust="spacing" textLength="408.5635" x="1746" y="680.0889">dispenseItem(VendingMachine machine, String itemCode)</text><ellipse cx="1737" cy="693.0391" fill="#84BE84" rx="3" ry="3" style="stroke:#038048;stroke-width:1;"/><text fill="#000000" font-family="sans-serif" font-size="14" lengthAdjust="spacing" textLength="319.2383" x="1746" y="696.3857">cancelTransaction(VendingMachine machine)</text></g><!--class PaymentStrategy--><g id="elem_PaymentStrategy"><rect codeLine="94" fill="#F1F1F1" height="64.2969" id="PaymentStrategy" rx="2.5" ry="2.5" style="stroke:#181818;stroke-width:0.5;" width="259.1328" x="492" y="615"/><ellipse cx="556.3638" cy="631" fill="#B4A7E5" rx="11" ry="11" style="stroke:#181818;stroke-width:1;"/><path d="M552.2856,626.7656 L552.2856,624.6094 L559.6763,624.6094 L559.6763,626.7656 L557.2075,626.7656 L557.2075,634.8438 L559.6763,634.8438 L559.6763,637 L552.2856,637 L552.2856,634.8438 L554.7544,634.8438 L554.7544,626.7656 L552.2856,626.7656 Z " fill="#000000"/><text fill="#000000" font-family="sans-serif" font-size="14" font-style="italic" lengthAdjust="spacing" textLength="121.9053" x="576.8638" y="635.8467">PaymentStrategy</text><line style="stroke:#181818;stroke-width:0.5;" x1="493" x2="750.1328" y1="647" y2="647"/><line style="stroke:#181818;stroke-width:0.5;" x1="493" x2="750.1328" y1="655" y2="655"/><ellipse cx="503" cy="668.6484" fill="#84BE84" rx="3" ry="3" style="stroke:#038048;stroke-width:1;"/><text fill="#000000" font-family="sans-serif" font-size="14" lengthAdjust="spacing" textLength="233.1328" x="512" y="671.9951">processPayment(double amount)</text></g><!--class CashPaymentStrategy--><g id="elem_CashPaymentStrategy"><rect codeLine="98" fill="#F1F1F1" height="64.2969" id="CashPaymentStrategy" rx="2.5" ry="2.5" style="stroke:#181818;stroke-width:0.5;" width="259.1328" x="486" y="846"/><ellipse cx="533.103" cy="862" fill="#ADD1B2" rx="11" ry="11" style="stroke:#181818;stroke-width:1;"/><path d="M536.0718,867.6406 Q535.4937,867.9375 534.853,868.0781 Q534.2124,868.2344 533.5093,868.2344 Q531.0093,868.2344 529.6812,866.5938 Q528.3687,864.9375 528.3687,861.8125 Q528.3687,858.6875 529.6812,857.0313 Q531.0093,855.375 533.5093,855.375 Q534.2124,855.375 534.853,855.5313 Q535.5093,855.6875 536.0718,855.9844 L536.0718,858.7031 Q535.4468,858.125 534.853,857.8594 Q534.2593,857.5781 533.6343,857.5781 Q532.2905,857.5781 531.603,858.6563 Q530.9155,859.7188 530.9155,861.8125 Q530.9155,863.9063 531.603,864.9844 Q532.2905,866.0469 533.6343,866.0469 Q534.2593,866.0469 534.853,865.7813 Q535.4468,865.5 536.0718,864.9219 L536.0718,867.6406 Z " fill="#000000"/><text fill="#000000" font-family="sans-serif" font-size="14" lengthAdjust="spacing" textLength="156.4268" x="553.603" y="866.8467">CashPaymentStrategy</text><line style="stroke:#181818;stroke-width:0.5;" x1="487" x2="744.1328" y1="878" y2="878"/><line style="stroke:#181818;stroke-width:0.5;" x1="487" x2="744.1328" y1="886" y2="886"/><ellipse cx="497" cy="899.6484" fill="#84BE84" rx="3" ry="3" style="stroke:#038048;stroke-width:1;"/><text fill="#000000" font-family="sans-serif" font-size="14" lengthAdjust="spacing" textLength="233.1328" x="506" y="902.9951">processPayment(double amount)</text></g><!--class CardPaymentStrategy--><g id="elem_CardPaymentStrategy"><rect codeLine="102" fill="#F1F1F1" height="64.2969" id="CardPaymentStrategy" rx="2.5" ry="2.5" style="stroke:#181818;stroke-width:0.5;" width="259.1328" x="780" y="846"/><ellipse cx="827.8652" cy="862" fill="#ADD1B2" rx="11" ry="11" style="stroke:#181818;stroke-width:1;"/><path d="M830.834,867.6406 Q830.2559,867.9375 829.6152,868.0781 Q828.9746,868.2344 828.2715,868.2344 Q825.7715,868.2344 824.4434,866.5938 Q823.1309,864.9375 823.1309,861.8125 Q823.1309,858.6875 824.4434,857.0313 Q825.7715,855.375 828.2715,855.375 Q828.9746,855.375 829.6152,855.5313 Q830.2715,855.6875 830.834,855.9844 L830.834,858.7031 Q830.209,858.125 829.6152,857.8594 Q829.0215,857.5781 828.3965,857.5781 Q827.0527,857.5781 826.3652,858.6563 Q825.6777,859.7188 825.6777,861.8125 Q825.6777,863.9063 826.3652,864.9844 Q827.0527,866.0469 828.3965,866.0469 Q829.0215,866.0469 829.6152,865.7813 Q830.209,865.5 830.834,864.9219 L830.834,867.6406 Z " fill="#000000"/><text fill="#000000" font-family="sans-serif" font-size="14" lengthAdjust="spacing" textLength="154.9023" x="848.3652" y="866.8467">CardPaymentStrategy</text><line style="stroke:#181818;stroke-width:0.5;" x1="781" x2="1038.1328" y1="878" y2="878"/><line style="stroke:#181818;stroke-width:0.5;" x1="781" x2="1038.1328" y1="886" y2="886"/><ellipse cx="791" cy="899.6484" fill="#84BE84" rx="3" ry="3" style="stroke:#038048;stroke-width:1;"/><text fill="#000000" font-family="sans-serif" font-size="14" lengthAdjust="spacing" textLength="233.1328" x="800" y="902.9951">processPayment(double amount)</text></g><!--reverse link VendingMachine to Inventory--><g id="link_VendingMachine_Inventory"><path codeLine="108" d="M453.8925,224.8071 C395.3425,263.6771 339.46,300.77 287.16,335.5 " fill="transparent" id="VendingMachine-backto-Inventory" style="stroke:#181818;stroke-width:1;"/><polygon fill="#181818" points="463.89,218.17,456.6789,218.1561,453.8925,224.8071,461.1036,224.821,463.89,218.17" style="stroke:#181818;stroke-width:1;"/><text fill="#000000" font-family="sans-serif" font-size="13" lengthAdjust="spacing" textLength="22.9785" x="389.5" y="277.0669">has</text><text fill="#000000" font-family="sans-serif" font-size="13" lengthAdjust="spacing" textLength="8.271" x="447.7238" y="220.1644">1</text><text fill="#000000" font-family="sans-serif" font-size="13" lengthAdjust="spacing" textLength="8.271" x="289.758" y="324.2216">1</text></g><!--reverse link VendingMachine to PaymentProcessor--><g id="link_VendingMachine_PaymentProcessor"><path codeLine="109" d="M609.5,246.37 C609.5,271.88 609.5,286.6 609.5,310.91 " fill="transparent" id="VendingMachine-backto-PaymentProcessor" style="stroke:#181818;stroke-width:1;"/><polygon fill="#181818" points="609.5,234.37,605.5,240.37,609.5,246.37,613.5,240.37,609.5,234.37" style="stroke:#181818;stroke-width:1;"/><text fill="#000000" font-family="sans-serif" font-size="13" lengthAdjust="spacing" textLength="22.9785" x="610.5" y="277.0669">has</text><text fill="#000000" font-family="sans-serif" font-size="13" lengthAdjust="spacing" textLength="8.271" x="601.262" y="254.2079">1</text><text fill="#000000" font-family="sans-serif" font-size="13" lengthAdjust="spacing" textLength="8.271" x="601.1811" y="299.968">1</text></g><!--reverse link VendingMachine to State--><g id="link_VendingMachine_State"><path codeLine="110" d="M766.4442,187.3857 C880.7842,235.3957 1027.47,296.97 1138.18,343.45 " fill="transparent" id="VendingMachine-backto-State" style="stroke:#181818;stroke-width:1;"/><polygon fill="transparent" points="755.38,182.74,759.3635,188.7509,766.4442,187.3857,762.4607,181.3748,755.38,182.74" style="stroke:#181818;stroke-width:1;"/><text fill="#000000" font-family="sans-serif" font-size="13" lengthAdjust="spacing" textLength="81.8213" x="981.5" y="277.0669">currentState</text><text fill="#000000" font-family="sans-serif" font-size="13" lengthAdjust="spacing" textLength="8.271" x="762.6536" y="182.4551">1</text><text fill="#000000" font-family="sans-serif" font-size="13" lengthAdjust="spacing" textLength="8.271" x="1112.7593" y="332.307">1</text></g><!--reverse link Inventory to ItemSlot--><g id="link_Inventory_ItemSlot"><path codeLine="111" d="M180.7013,476.6092 C176.2813,507.5192 172.63,533.09 167.94,565.91 " fill="transparent" id="Inventory-backto-ItemSlot" style="stroke:#181818;stroke-width:1;"/><polygon fill="#181818" points="182.4,464.73,177.5909,470.1034,180.7013,476.6092,185.5104,471.2358,182.4,464.73" style="stroke:#181818;stroke-width:1;"/><text fill="#000000" font-family="sans-serif" font-size="13" lengthAdjust="spacing" textLength="55.0278" x="175.5" y="532.0669">contains</text><text fill="#000000" font-family="sans-serif" font-size="13" lengthAdjust="spacing" textLength="8.271" x="172.8852" y="485.1282">1</text><text fill="#000000" font-family="sans-serif" font-size="13" lengthAdjust="spacing" textLength="6.5" x="162.7603" y="554.8125">*</text></g><!--reverse link ItemSlot to Item--><g id="link_ItemSlot_Item"><path codeLine="112" d="M156.5,740.09 C156.5,765.11 156.5,780.55 156.5,804.98 " fill="transparent" id="ItemSlot-backto-Item" style="stroke:#181818;stroke-width:1;"/><polygon fill="#181818" points="156.5,728.09,152.5,734.09,156.5,740.09,160.5,734.09,156.5,728.09" style="stroke:#181818;stroke-width:1;"/><text fill="#000000" font-family="sans-serif" font-size="13" lengthAdjust="spacing" textLength="34.8296" x="157.5" y="771.0669">holds</text><text fill="#000000" font-family="sans-serif" font-size="13" lengthAdjust="spacing" textLength="8.271" x="148.1743" y="748.0494">1</text><text fill="#000000" font-family="sans-serif" font-size="13" lengthAdjust="spacing" textLength="8.271" x="148.1011" y="793.7614">1</text></g><!--reverse link PaymentProcessor to PaymentStrategy--><g id="link_PaymentProcessor_PaymentStrategy"><path codeLine="113" d="M614.407,501.0856 C616.557,544.9856 618.43,583.32 619.98,614.88 " fill="transparent" id="PaymentProcessor-backto-PaymentStrategy" style="stroke:#181818;stroke-width:1;"/><polygon fill="transparent" points="613.82,489.1,610.1183,495.2885,614.407,501.0856,618.1087,494.8972,613.82,489.1" style="stroke:#181818;stroke-width:1;"/><text fill="#000000" font-family="sans-serif" font-size="13" lengthAdjust="spacing" textLength="29.7832" x="617.5" y="532.0669">uses</text><text fill="#000000" font-family="sans-serif" font-size="13" lengthAdjust="spacing" textLength="8.271" x="605.8603" y="509.4581">1</text><text fill="#000000" font-family="sans-serif" font-size="13" lengthAdjust="spacing" textLength="8.271" x="610.8558" y="603.7584">1</text></g><!--link PaymentProcessor to Money--><g id="link_PaymentProcessor_Money"><path codeLine="114" d="M528.95,489.1 C498.09,522.85 467.8188,555.962 440.4888,585.852 " fill="transparent" id="PaymentProcessor-to-Money" style="stroke:#181818;stroke-width:1;stroke-dasharray:7.0,7.0;"/><polygon fill="#181818" points="436.44,590.28,445.4652,586.3371,439.814,586.59,439.5611,580.9388,436.44,590.28" style="stroke:#181818;stroke-width:1;"/><text fill="#000000" font-family="sans-serif" font-size="13" lengthAdjust="spacing" textLength="54.5645" x="498.5" y="532.0669">receives</text></g><!--link Money to MoneyType--><g id="link_Money_MoneyType"><path codeLine="115" d="M385.5,703.73 C385.5,743.58 385.5,796.46 385.5,833.28 " fill="transparent" id="Money-MoneyType" style="stroke:#181818;stroke-width:1;"/><text fill="#000000" font-family="sans-serif" font-size="13" lengthAdjust="spacing" textLength="58.519" x="386.5" y="771.0669">has_type</text><text fill="#000000" font-family="sans-serif" font-size="13" lengthAdjust="spacing" textLength="6.5" x="379.1357" y="723.6216">*</text><text fill="#000000" font-family="sans-serif" font-size="13" lengthAdjust="spacing" textLength="8.271" x="376.9272" y="822.3716">1</text></g><!--reverse link State to IdleState--><g id="link_State_IdleState"><path codeLine="118" d="M1196.6486,468.761 C1153.1086,508.721 1107.9,550.2 1064.31,590.2 " fill="transparent" id="State-backto-IdleState" style="stroke:#181818;stroke-width:1;stroke-dasharray:7.0,7.0;"/><polygon fill="transparent" points="1209.91,456.59,1192.5915,464.3406,1200.7056,473.1815,1209.91,456.59" style="stroke:#181818;stroke-width:1;"/></g><!--reverse link State to HasMoneyState--><g id="link_State_HasMoneyState"><path codeLine="119" d="M1328.0444,470.4503 C1361.1544,510.4103 1394.12,550.2 1427.27,590.2 " fill="transparent" id="State-backto-HasMoneyState" style="stroke:#181818;stroke-width:1;stroke-dasharray:7.0,7.0;"/><polygon fill="transparent" points="1316.56,456.59,1323.4243,474.2785,1332.6645,466.6222,1316.56,456.59" style="stroke:#181818;stroke-width:1;"/></g><!--reverse link State to DispensingState--><g id="link_State_DispensingState"><path codeLine="120" d="M1440.1239,462.7479 C1550.0739,502.7779 1680.87,550.39 1790.81,590.41 " fill="transparent" id="State-backto-DispensingState" style="stroke:#181818;stroke-width:1;stroke-dasharray:7.0,7.0;"/><polygon fill="transparent" points="1423.21,456.59,1438.0713,468.3859,1442.1765,457.11,1423.21,456.59" style="stroke:#181818;stroke-width:1;"/></g><!--reverse link PaymentStrategy to CashPaymentStrategy--><g id="link_PaymentStrategy_CashPaymentStrategy"><path codeLine="121" d="M620.2068,697.3538 C619.0568,741.0838 617.47,801.93 616.32,845.65 " fill="transparent" id="PaymentStrategy-backto-CashPaymentStrategy" style="stroke:#181818;stroke-width:1;stroke-dasharray:7.0,7.0;"/><polygon fill="transparent" points="620.68,679.36,614.2089,697.196,626.2047,697.5115,620.68,679.36" style="stroke:#181818;stroke-width:1;"/></g><!--reverse link PaymentStrategy to CardPaymentStrategy--><g id="link_PaymentStrategy_CardPaymentStrategy"><path codeLine="122" d="M674.729,690.3226 C729.789,734.1026 815.43,802.2 870.44,845.95 " fill="transparent" id="PaymentStrategy-backto-CardPaymentStrategy" style="stroke:#181818;stroke-width:1;stroke-dasharray:7.0,7.0;"/><polygon fill="transparent" points="660.64,679.12,670.9948,695.019,678.4632,685.6263,660.64,679.12" style="stroke:#181818;stroke-width:1;"/></g><!--SRC=[vLRDJzim5B_dhx2u45ZRQTUgghILmoe1Ou2u8izvj9OS9xETIbst_ttF7qaSfo3OZlJWsdvVlz_ByxDFoNGw9HVmn2Ktl9BQhZCcgDRa0MJ1vUQAiYsNG0uPmTzqBNSWJQNsXBSpBxYX-nBNDwfYe7MbI9riUBKxGmqGrYY5ChVm-rUqNjmPXG4dvA9gVWXOOWGDoa1nLKdmKJuud5JmNv2VjJjMoQdaRYIb7ODKWm1crWRAt7id7EUhge2WmAXa8EuLbPeocuBMRy5r3UZx1Li5fb5ojQLoqy7Hu5dbdgYsurds9mj9xTDt6FEseUv4PPOka9rfxvGMXODX1oURa818ev95DC5a6VApeT9mqvBVm81vgnkaJLqWjk_197-DGwwjlyyxoWN5BpHstFCC1BgoQP7xPUoxhOk1go61day7j_rAm1JOCai5NAO26vEMLIDDWhF56218MeQQB5mTabfn1WCL5YEyHlq8uOtLZjQMJHv579sJmo2OgGmLwr3uWvE5iV5xRVRjmMhNhpa6YEC-TfntrIzO8z1DAEAOSLVaMD9HTITeyXIT3fDWKNkUGQiDCFeE7l8m5JigchOxMF7zliRyuD1nUh0QKQwjHfvwTMQB1SYc18I6Htovj95MtzRN6Vcolhoq1bWTe9ue0-8Fxc6SrgGXblv_GbxiEiyP7UyeWwRpDjDn8pjk7nT_8U3ziFrAjSF-VXXV-6YeynuuzoSuRKc7DxMY5TNR__MWYd_ra9sw9zaj2DUgz9RN_b6MC3_vT4BEKT7-zu-AETbI_PBgwFPvrg8A5hvqviCdMn-nStv-qb_wg5r9Gx7Gicvl0DZUkXYv4eNEHf3Yw6aQvwJHSCHcDbk6cfqJ1Gpu3hNyXaKMlFNtWQFzw2uJpFYwh8LxBBYSVxm5-y9qyypJN_oUpVfs6MyEkaeiI0vVbZ9nIaTgxJd5KKdz1G00]--></g></svg>